<?xml version="1.0" encoding="UTF-8" standalone="no"?>
<!-- Created with Inkscape (http://www.inkscape.org/) -->

<svg
   xmlns:dc="http://purl.org/dc/elements/1.1/"
   xmlns:cc="http://creativecommons.org/ns#"
   xmlns:rdf="http://www.w3.org/1999/02/22-rdf-syntax-ns#"
   xmlns:svg="http://www.w3.org/2000/svg"
   xmlns="http://www.w3.org/2000/svg"
   xmlns:sodipodi="http://sodipodi.sourceforge.net/DTD/sodipodi-0.dtd"
   xmlns:inkscape="http://www.inkscape.org/namespaces/inkscape"
   width="24"
   height="24"
   viewBox="0 0 24 24"
   id="svg2"
   version="1.1"
   inkscape:version="0.91 r13725"
   sodipodi:docname="battery-icons.svg">
  <defs
     id="defs4" />
  <sodipodi:namedview
     id="base"
     pagecolor="#000000"
     bordercolor="#666666"
     borderopacity="1.0"
     inkscape:pageopacity="0"
     inkscape:pageshadow="2"
     inkscape:zoom="16"
     inkscape:cx="2.889465"
     inkscape:cy="9.9322823"
     inkscape:document-units="px"
     inkscape:current-layer="layer8"
     showgrid="false"
     units="px"
     fit-margin-top="0"
     fit-margin-left="0"
     fit-margin-right="0"
     fit-margin-bottom="0"
     inkscape:window-width="1920"
     inkscape:window-height="1050"
     inkscape:window-x="0"
     inkscape:window-y="30"
     inkscape:window-maximized="1" />
  <metadata
     id="metadata7">
    <rdf:RDF>
      <cc:Work
         rdf:about="">
        <dc:format>image/svg+xml</dc:format>
        <dc:type
           rdf:resource="http://purl.org/dc/dcmitype/StillImage" />
        <dc:title></dc:title>
      </cc:Work>
    </rdf:RDF>
  </metadata>
  <g
     inkscape:label="background"
     inkscape:groupmode="layer"
     id="layer1"
     transform="translate(3.3035715,-1024.436)" />
  <g
     inkscape:groupmode="layer"
     id="layer2"
     inkscape:label="battery"
     transform="translate(-3.7368774e-8,0.78336484)"
     style="display:inline">
    <g
       id="g4227"
       transform="matrix(1,0,0,1.28921,-0.45328619,0.0042067)"
       style="display:inline;fill:#40bbfc;fill-opacity:1;stroke:none">
      <g
         id="g4286"
         style="fill:#40bbfc;fill-opacity:1;stroke:none">
        <rect
           style="opacity:1;fill:#40bbfc;fill-opacity:1;stroke:none"
           id="rect4161"
           width="22.097086"
           height="10.16466"
           x="2.0834401"
           y="6.3854651" />
        <rect
           style="opacity:1;fill:#40bbfc;fill-opacity:1;stroke:none"
           id="rect4224"
           width="1.420527"
           height="4.0095177"
           x="0.72604716"
           y="9.4630365" />
      </g>
    </g>
  </g>
  <g
     inkscape:groupmode="layer"
     id="layer8"
     inkscape:label="plugged"
     transform="translate(-3.7368774e-8,0.78336484)"
     style="display:inline">
    <path
       style="opacity:1;fill:#9e9e9e;fill-opacity:1;stroke:none;stroke-width:1.5;stroke-miterlimit:4;stroke-dasharray:none;stroke-opacity:1"
       d="m 16.950565,1.1288996 0,0.6759943 -2.619184,0 c -1.004589,0 -1.812546,0.784816 -1.85604,1.7783125 l -0.407481,0 0,0.7537219 -1.480971,0 c -2.2441703,0 -4.0840432,1.7197143 -4.3244772,3.9020613 l 1.8089324,0 C 8.2883326,7.0372342 9.3139893,6.1458607 10.586889,6.1458607 l 1.480971,0 0,0.7537219 0.407481,0 c 0.04456,0.9924881 0.85217,1.7806686 1.85604,1.7806686 l 2.619184,0 0,0.6759925 2.517901,0 0,-1.7971546 4.013571,0 0,-0.8322443 -4.013571,0 0,-2.9709008 4.013571,0 0,-0.8322443 -4.013571,0 0,-1.7948001 z"
       id="rect4518"
       inkscape:connector-curvature="0"
       sodipodi:nodetypes="ccscccsccscccsccccccccccccc" />
  </g>
  <g
     inkscape:groupmode="layer"
     id="layer3"
     inkscape:label="caution"
     transform="translate(-3.7368774e-8,0.78336484)"
     style="display:inline">
    <rect
       style="display:inline;opacity:1;fill:#ffffff;fill-opacity:1;stroke:none"
       id="rect4159"
       width="3.2"
       height="10.621874"
       x="18.622789"
       y="9.4776649" />
  </g>
  <g
     inkscape:groupmode="layer"
     id="layer4"
     inkscape:label="low"
     transform="translate(-3.7368774e-8,0.78336484)"
     style="display:inline">
    <rect
       style="display:inline;opacity:1;fill:#ffffff;fill-opacity:1;stroke:none"
       id="rect4159-0"
       width="3.2"
       height="10.621874"
       x="13.662073"
       y="9.4776649" />
  </g>
  <g
     inkscape:groupmode="layer"
     id="layer5"
     inkscape:label="good"
     transform="translate(-3.7368774e-8,0.78336484)"
     style="display:inline">
    <rect
       style="display:inline;opacity:1;fill:#ffffff;fill-opacity:1;stroke:none"
       id="rect4159-03"
       width="3.2"
       height="10.621874"
       x="8.7013578"
       y="9.4776649" />
  </g>
  <g
     inkscape:groupmode="layer"
     id="layer6"
     inkscape:label="full"
     transform="translate(-3.7368774e-8,0.78336484)"
     style="display:inline">
    <rect
       style="display:inline;opacity:1;fill:#ffffff;fill-opacity:1;stroke:none"
       id="rect4159-8"
       width="3.2"
       height="10.621874"
       x="3.7406421"
       y="9.4776649" />
  </g>
  <g
     inkscape:groupmode="layer"
     id="layer7"
     inkscape:label="charging"
     transform="translate(-3.7368774e-8,0.78336484)"
     style="display:inline">
    <path
       style="fill:#fcb940;fill-opacity:1;fill-rule:evenodd;stroke:none;stroke-width:1px;stroke-linecap:butt;stroke-linejoin:miter;stroke-opacity:1"
       d="M 10.051091,-0.04886995 C 9.8071381,0.38901334 0.98488285,9.7358161 0.98488285,9.7358161 L 3.4040837,10.52329 1.236616,20.528652 C 1.4805686,20.09077 10.30497,10.74312 10.30497,10.74312 L 7.8836312,9.9564867 10.051091,-0.04886995 Z"
       id="path4252"
       inkscape:connector-curvature="0" />
  </g>
</svg>
